<svg width="28.003845" height="28.014160" viewBox="0 0 28.0038 28.0142" fill="none" xmlns="http://www.w3.org/2000/svg" xmlns:xlink="http://www.w3.org/1999/xlink">
	<desc>
			Created with Pixso.
	</desc>
	<defs/>
	<path id="_x30_8.Whatsapp" d="M14 0C6.26 0 0 6.26 0 14C0 17.08 0.98 19.92 2.66 22.23L0.73 27.31L6.3 25.7C8.5 27.17 11.16 28.01 14 28.01C21.73 28.01 28 21.74 28 14C28 6.26 21.73 0 14 0ZM21.45 19.81L19.95 21.29C18.37 22.86 14.21 21.15 10.53 17.43C6.86 13.76 5.21 9.59 6.68 8.05L8.19 6.54C8.75 5.98 9.69 5.98 10.29 6.54L12.49 8.75C13.26 9.52 12.95 10.85 11.93 11.17C11.23 11.41 10.74 12.18 10.99 12.88C11.37 14.53 13.51 16.56 15.08 16.94C15.78 17.12 16.59 16.7 16.8 16C17.11 14.98 18.44 14.67 19.21 15.44L21.42 17.64C21.98 18.24 21.98 19.18 21.45 19.81Z" fill="#8AB5D5" fill-opacity="1.000000" fill-rule="nonzero"/>
</svg>
