<svg width="32.000000" height="32.000000" viewBox="0 0 32 32" fill="none" xmlns="http://www.w3.org/2000/svg" xmlns:xlink="http://www.w3.org/1999/xlink">
	<desc>
			Created with Pixso.
	</desc>
	<defs/>
	<path id="Vector" d="M16 32C24.82 32 32 24.82 32 16C32 7.17 24.82 0 16 0C7.17 0 0 7.17 0 16C0 24.82 7.17 32 16 32ZM11.05 15.05L17.72 8.39C17.98 8.13 18.32 8 18.66 8C19 8 19.34 8.13 19.6 8.39C20.13 8.91 20.13 9.75 19.6 10.27L13.88 16L19.6 21.72C20.13 22.24 20.13 23.08 19.6 23.6C19.08 24.13 18.24 24.13 17.72 23.6L11.05 16.94C10.53 16.42 10.53 15.57 11.05 15.05Z" fill="#487CAB" fill-opacity="1.000000" fill-rule="nonzero"/>
</svg>
