<svg width="56.000183" height="32.625000" viewBox="0 0 56.0002 32.625" fill="none" xmlns="http://www.w3.org/2000/svg" xmlns:xlink="http://www.w3.org/1999/xlink">
	<desc>
			Created with Pixso.
	</desc>
	<defs/>
	<path id="Vector" d="M35.2 17.27C34.98 17.24 34.71 17.17 34.39 17.06C34.08 16.95 33.73 16.78 33.36 16.55C32.98 16.33 32.58 16.02 32.16 15.62C31.83 15.31 31.49 14.93 31.16 14.5C30.82 14.07 30.49 13.62 30.17 13.16C29.85 12.69 29.55 12.24 29.28 11.8C29 11.37 28.75 10.98 28.55 10.64L28.6 10.64C28.62 10.64 28.64 10.65 28.66 10.65C28.67 10.66 28.7 10.66 28.72 10.66C28.95 10.66 29.25 10.57 29.61 10.4C29.98 10.22 30.37 9.99 30.78 9.69C31.19 9.4 31.61 9.05 32.03 8.66C32.44 8.27 32.82 7.86 33.16 7.41C33.49 6.97 33.77 6.52 33.97 6.05C34.18 5.59 34.29 5.13 34.29 4.69C34.29 4.37 34.14 4.03 33.84 3.7C33.55 3.36 33.22 3.05 32.86 2.77C32.44 2.45 31.97 2.13 31.45 1.83C31.45 1.81 31.35 1.85 31.14 1.97C30.93 2.08 30.66 2.27 30.32 2.51C29.98 2.75 29.61 3.06 29.21 3.43C28.8 3.81 28.41 4.23 28.02 4.71C28.08 4.39 28.13 4.1 28.17 3.82C28.21 3.54 28.23 3.28 28.23 3.05C28.23 2.74 28.19 2.47 28.11 2.26C28.03 2.04 27.89 1.89 27.71 1.79C27.55 1.72 27.35 1.65 27.11 1.58C26.87 1.5 26.64 1.43 26.4 1.36C26.14 1.29 25.86 1.21 25.59 1.13C25.25 1.3 24.88 1.55 24.48 1.87C24.08 2.19 23.7 2.58 23.34 3.02C22.98 3.47 22.68 3.97 22.44 4.53C22.21 5.09 22.09 5.7 22.09 6.37C22.09 6.53 22.09 6.69 22.1 6.85C22.12 7 22.14 7.16 22.17 7.33C22.19 7.4 22.25 7.47 22.37 7.56C22.5 7.64 22.64 7.71 22.79 7.78C22.95 7.85 23.1 7.91 23.26 7.95C23.42 7.99 23.54 8.01 23.62 8.01C23.68 8.01 23.71 8 23.71 7.97C23.71 7.79 23.68 7.6 23.64 7.42C23.6 7.23 23.58 7.04 23.58 6.84C23.58 6.23 23.67 5.64 23.83 5.05C23.99 4.46 24.18 3.94 24.41 3.49C24.64 3.03 24.87 2.67 25.11 2.39C25.34 2.11 25.54 1.97 25.71 1.97C25.92 1.97 26.02 2.18 26.02 2.6C26.02 2.88 25.98 3.18 25.89 3.52C25.8 3.86 25.68 4.25 25.52 4.69C25.37 5.13 25.19 5.65 24.98 6.25C24.78 6.84 24.56 7.54 24.33 8.34C24.18 8.86 24.03 9.43 23.87 10.03C23.71 10.63 23.57 11.23 23.45 11.83C23.33 12.44 23.23 13.03 23.15 13.6C23.07 14.18 23.03 14.7 23.03 15.17C23.03 15.71 23.08 16.14 23.2 16.46C23.25 16.6 23.36 16.73 23.53 16.84C23.71 16.96 23.92 17.06 24.17 17.14C24.42 17.22 24.7 17.28 25.02 17.32C25.34 17.36 25.67 17.38 26 17.38C26.13 17.38 26.25 17.38 26.36 17.38C26.47 17.37 26.59 17.36 26.72 17.35C26.5 17.06 26.34 16.69 26.25 16.23C26.15 15.78 26.11 15.27 26.11 14.71C26.11 13.97 26.17 13.17 26.3 12.3C26.43 11.44 26.58 10.59 26.77 9.75C26.92 9.87 27.06 10.07 27.2 10.35C27.34 10.63 27.48 10.96 27.62 11.34C27.76 11.73 27.91 12.15 28.07 12.61C28.22 13.07 28.39 13.53 28.57 14.01C28.75 14.48 28.95 14.94 29.16 15.4C29.38 15.86 29.62 16.28 29.88 16.65C30.43 17.43 31 18.06 31.61 18.54C32.21 19.01 32.77 19.25 33.29 19.25C33.56 19.25 33.85 19.15 34.15 18.95C34.45 18.76 34.72 18.54 34.97 18.3C35.22 18.06 35.43 17.84 35.59 17.64C35.75 17.43 35.84 17.32 35.84 17.31L35.7 17.31C35.59 17.31 35.43 17.3 35.2 17.27L35.2 17.27ZM27.5 9.22C27.2 9.34 26.97 9.43 26.82 9.49C26.91 9.08 27.01 8.69 27.11 8.31C27.21 7.94 27.3 7.58 27.4 7.24L27.5 6.87C28 6.22 28.5 5.67 29 5.21C29.5 4.75 29.96 4.37 30.4 4.09C30.83 3.8 31.22 3.6 31.57 3.47C31.91 3.34 32.17 3.28 32.36 3.28C32.55 3.28 32.65 3.33 32.65 3.45L32.65 3.5C32.48 4.2 32.24 4.83 31.92 5.37C31.61 5.92 31.26 6.4 30.89 6.83C30.51 7.26 30.11 7.62 29.69 7.94C29.28 8.25 28.88 8.52 28.51 8.72C28.14 8.93 27.8 9.1 27.5 9.22L27.5 9.22Z" fill="#487CAB" fill-opacity="1.000000" fill-rule="nonzero"/>
	<path id="Vector" d="M46.37 15.03C46.19 14.72 46.01 14.44 45.81 14.17C46.06 13.98 46.39 13.74 46.8 13.45C47.21 13.15 47.6 12.85 47.99 12.54C48.37 12.23 48.7 11.95 48.98 11.7C49.26 11.45 49.39 11.28 49.39 11.18C49.41 11.06 49.39 10.96 49.33 10.89C49.28 10.82 49.23 10.75 49.17 10.69C49.1 10.65 49.01 10.6 48.91 10.56C48.87 10.64 48.77 10.76 48.61 10.91C48.45 11.07 48.25 11.25 48.01 11.45C47.77 11.64 47.52 11.85 47.24 12.07C46.96 12.28 46.69 12.49 46.44 12.69C46.18 12.88 45.95 13.06 45.76 13.2C45.56 13.35 45.42 13.45 45.34 13.51C45.27 13.43 45.19 13.34 45.11 13.24C45.03 13.14 44.94 13.02 44.83 12.89C44.72 12.75 44.58 12.59 44.42 12.4C44.25 12.21 44.06 11.97 43.82 11.67C43.8 11.64 43.78 11.59 43.76 11.52C43.65 11.25 43.65 10.97 43.76 10.69C43.87 10.4 44.04 10.13 44.28 9.88C44.51 9.62 44.78 9.39 45.1 9.18C45.41 8.97 45.72 8.8 46.02 8.67C46.32 8.54 46.59 8.47 46.84 8.44C47.09 8.42 47.28 8.47 47.39 8.58C47.44 8.68 47.4 8.8 47.26 8.94C47.13 9.09 46.95 9.25 46.72 9.41C46.5 9.58 46.25 9.75 45.97 9.92C45.7 10.09 45.44 10.24 45.2 10.38C45.3 10.62 45.47 10.75 45.69 10.79C45.92 10.83 46.16 10.81 46.43 10.72C46.69 10.63 46.94 10.5 47.19 10.31C47.44 10.13 47.65 9.91 47.81 9.67C47.97 9.43 48.07 9.18 48.1 8.92C48.12 8.66 48.05 8.41 47.88 8.18C47.75 8.01 47.58 7.8 47.36 7.57C47.15 7.34 46.92 7.12 46.67 6.91C46.42 6.7 46.16 6.52 45.89 6.36C45.63 6.21 45.38 6.13 45.15 6.1C44.58 6.13 44.03 6.3 43.52 6.63C43 6.95 42.57 7.36 42.21 7.84C41.86 8.32 41.61 8.84 41.46 9.4C41.32 9.96 41.33 10.48 41.51 10.97C41.58 11.2 41.69 11.41 41.84 11.59C41.83 11.61 41.82 11.63 41.81 11.65C41.73 11.86 41.61 12.1 41.47 12.37C41.32 12.64 41.16 12.92 40.98 13.21C40.8 13.5 40.61 13.75 40.41 13.98C40.21 14.2 40.02 14.37 39.82 14.5C39.62 14.63 39.43 14.66 39.25 14.6C39.11 14.68 39.02 14.61 38.98 14.39C38.94 14.16 38.94 13.82 38.99 13.37C39.05 12.93 39.14 12.39 39.28 11.76C39.42 11.13 39.61 10.45 39.86 9.72C39.98 9.33 39.96 9.02 39.79 8.79C39.63 8.56 39.41 8.37 39.14 8.24C38.88 8.11 38.6 8.01 38.31 7.95C38.02 7.89 37.81 7.85 37.7 7.83C37.55 8.37 37.39 8.95 37.22 9.59C37.05 10.23 36.86 10.86 36.65 11.46C36.44 12.07 36.21 12.63 35.96 13.15C35.7 13.66 35.42 14.07 35.1 14.36C34.83 14.64 34.63 14.74 34.52 14.67C34.41 14.59 34.36 14.41 34.36 14.12C34.36 13.84 34.4 13.49 34.49 13.07C34.59 12.65 34.7 12.23 34.83 11.82C34.97 11.41 35.11 11.03 35.25 10.7C35.4 10.37 35.53 10.15 35.64 10.05C35.69 10 35.63 9.9 35.45 9.74C35.28 9.58 35.05 9.46 34.76 9.37C34.47 9.29 34.14 9.28 33.79 9.35C33.44 9.42 33.11 9.65 32.82 10.05C32.71 10.28 32.6 10.54 32.51 10.83C32.42 11.12 32.34 11.43 32.28 11.76C32.21 12.08 32.17 12.42 32.15 12.76C32.12 13.11 32.13 13.43 32.16 13.75C32.24 14.16 32.46 14.49 32.8 14.75C33.14 15.02 33.55 15.23 34.03 15.39C34.35 15.48 34.64 15.49 34.89 15.4C35.14 15.31 35.36 15.17 35.56 14.97C35.75 14.77 35.93 14.54 36.08 14.26C36.23 13.98 36.37 13.7 36.49 13.41C36.61 13.12 36.72 12.85 36.82 12.58C36.92 12.31 37.01 12.09 37.11 11.92C36.93 12.56 36.85 13.1 36.87 13.56C36.89 14.01 36.98 14.38 37.16 14.67C37.33 14.95 37.57 15.16 37.87 15.29C38.17 15.41 38.52 15.47 38.9 15.46C39.18 15.47 39.46 15.4 39.75 15.25C40.04 15.1 40.32 14.9 40.59 14.67C40.85 14.43 41.1 14.17 41.34 13.88C41.57 13.6 41.77 13.32 41.94 13.04C42.1 12.77 42.23 12.52 42.33 12.31C42.35 12.25 42.37 12.2 42.39 12.15C42.52 12.27 42.66 12.39 42.8 12.5C43.08 12.73 43.35 12.95 43.63 13.17C43.91 13.39 44.14 13.64 44.33 13.92C44.06 14.1 43.75 14.34 43.4 14.64C43.04 14.94 42.69 15.28 42.33 15.64C41.97 16.01 41.63 16.4 41.3 16.81C40.98 17.21 40.71 17.61 40.49 17.98C40.28 18.36 40.14 18.72 40.07 19.05C40.01 19.38 40.06 19.66 40.22 19.88C40.35 20.05 40.52 20.26 40.73 20.49C40.94 20.72 41.16 20.94 41.41 21.15C41.65 21.36 41.9 21.54 42.16 21.69C42.42 21.85 42.67 21.93 42.9 21.96C43.28 21.94 43.66 21.83 44.03 21.62C44.4 21.4 44.76 21.13 45.09 20.79C45.42 20.46 45.71 20.09 45.97 19.67C46.23 19.25 46.45 18.82 46.61 18.39C46.77 17.95 46.87 17.52 46.91 17.1C46.95 16.68 46.92 16.31 46.8 15.99C46.68 15.65 46.54 15.33 46.37 15.02L46.37 15.03ZM44.95 15.7C44.85 16.09 44.69 16.48 44.46 16.89C44.23 17.29 43.96 17.68 43.64 18.06C43.32 18.43 43.01 18.76 42.69 19.02C42.38 19.29 42.09 19.49 41.83 19.61C41.57 19.73 41.39 19.73 41.29 19.62C41.17 19.45 41.15 19.24 41.22 18.99C41.29 18.73 41.41 18.45 41.59 18.15C41.77 17.85 42 17.53 42.27 17.2C42.54 16.87 42.83 16.55 43.13 16.23C43.43 15.92 43.74 15.63 44.05 15.36C44.36 15.09 44.65 14.86 44.9 14.68C45.03 14.97 45.05 15.31 44.95 15.7Z" fill="#487CAB" fill-opacity="1.000000" fill-rule="nonzero"/>
	<path id="Vector" d="M55.96 13.63C54.27 14.6 52.19 14.96 49.71 14.71C50.76 14.06 51.69 13.39 52.5 12.71C53.31 12.03 53.95 11.33 54.44 10.61C54.93 9.89 55.22 9.21 55.32 8.57C55.42 7.94 55.37 7.39 55.17 6.93C54.97 6.47 54.62 6.12 54.11 5.87C53.6 5.62 52.66 5.58 51.29 5.75C49.92 5.93 49.04 6.37 48.64 7.06C48.24 7.76 48.23 8.45 48.61 9.14C48.99 9.83 49.49 10.16 50.1 10.14C50.71 10.13 51.14 9.96 51.39 9.63C51.16 9.63 50.98 9.55 50.84 9.38C50.7 9.21 50.59 9 50.52 8.77C50.46 8.53 50.43 8.27 50.46 7.98C50.48 7.7 50.54 7.43 50.65 7.19C50.75 6.96 50.89 6.75 51.07 6.58C51.25 6.41 51.47 6.33 51.72 6.33C52.11 6.33 52.39 6.47 52.58 6.74C52.76 7.01 52.85 7.39 52.85 7.88C52.84 8.36 52.73 8.9 52.5 9.51C52.27 10.11 51.95 10.75 51.54 11.43C51.13 12.1 50.61 12.78 49.98 13.47C49.34 14.16 48.62 14.8 47.81 15.39C47.93 15.93 48.04 16.16 48.16 16.09C49.24 15.78 50.22 15.68 51.12 15.8C52.01 15.92 52.73 16.05 53.27 16.18C53.8 16.31 54.33 16.31 54.83 16.18C55.34 16.05 55.67 15.78 55.83 15.37C55.99 14.97 56.04 14.38 55.95 13.63L55.96 13.63Z" fill="#487CAB" fill-opacity="1.000000" fill-rule="nonzero"/>
	<path id="Vector" d="M7.38 16.02L7.38 16.02C8.7 15.09 8.87 13.09 6.8 10.33L4.19 6.83L4.08 6.69C4.04 6.64 4.01 6.59 3.98 6.54C2.98 5.06 3.24 2.83 5.03 1.71C5.03 1.71 5.03 1.71 5.03 1.71C6.47 0.88 7.36 0.95 8.58 1.41C6.54 -1.29 2.21 0.37 0.93 2.25C0.48 2.92 0.36 3.34 0.28 3.56C-0.46 5.51 0.26 7.93 2.15 10.23C3.38 11.73 7.34 15.97 7.38 16.02L7.38 16.02Z" fill="#487CAB" fill-opacity="1.000000" fill-rule="nonzero"/>
	<path id="Vector" d="M12.15 1.74C12.15 1.74 12.15 1.74 12.15 1.74C13.99 2.92 14.18 5.26 13.06 6.73L10.3 10.34C8.21 13.08 8.36 15.09 9.66 16.03C9.66 16.03 13.7 11.79 14.95 10.29C16.86 8.01 17.61 5.6 16.88 3.64C16.8 3.42 16.69 3 16.24 2.32C14.99 0.43 10.67 -1.27 8.6 1.41C9.83 0.96 10.72 0.9 12.16 1.74L12.15 1.74Z" fill="#487CAB" fill-opacity="1.000000" fill-rule="nonzero"/>
	<path id="Vector" d="M13.51 17.02L7.97 17.04C3.76 17.04 2 18.65 2.01 20.63L11.66 20.61C11.66 20.61 11.66 20.61 11.66 20.61C15.48 20.61 18.6 15.87 17.65 12.42C17.88 15.08 15.77 17.02 13.51 17.02L13.51 17.02Z" fill="#487CAB" fill-opacity="1.000000" fill-rule="nonzero"/>
	<path id="Vector" d="M9.05 25.57C11.79 25.57 12.54 26.78 12.54 28.23L12.54 28.24C12.54 29.69 11.79 30.9 9.05 30.9L2.03 30.9L2.03 32.62L0 32.62L0 25.57L9.05 25.57L9.05 25.57ZM10.51 28.23C10.51 27.7 10.21 27.4 9.05 27.4L2.03 27.4L2.03 29.06L9.05 29.06C10.21 29.06 10.51 28.77 10.51 28.24L10.51 28.23L10.51 28.23Z" fill="#487CAB" fill-opacity="1.000000" fill-rule="nonzero"/>
	<path id="Vector" d="M13.93 32.62L13.93 25.57L16.07 25.57L16.07 32.62L13.93 32.62Z" fill="#487CAB" fill-opacity="1.000000" fill-rule="nonzero"/>
	<path id="Vector" d="M25.41 29.16L30.2 32.62L27.02 32.62L23.75 30.25L20.5 32.62L17.33 32.62L22.09 29.16L17.33 25.57L20.5 25.57L23.75 28.04L27.01 25.57L30.19 25.57L25.41 29.16L25.41 29.16Z" fill="#487CAB" fill-opacity="1.000000" fill-rule="nonzero"/>
	<path id="Vector" d="M43.31 25.57L43.31 27.27L33.5 27.27L33.5 28.29L42.3 28.29L42.3 29.92L33.5 29.92L33.5 30.92L43.31 30.92L43.31 32.62L31.47 32.62L31.47 25.57L43.31 25.57L43.31 25.57Z" fill="#487CAB" fill-opacity="1.000000" fill-rule="nonzero"/>
	<path id="Vector" d="M47.03 25.57L47.03 30.68L56 30.68L56 32.62L44.9 32.62L44.9 25.57L47.03 25.57Z" fill="#487CAB" fill-opacity="1.000000" fill-rule="nonzero"/>
</svg>
