<svg width="32.000000" height="32.000000" viewBox="0 0 32 32" fill="none" xmlns="http://www.w3.org/2000/svg" xmlns:xlink="http://www.w3.org/1999/xlink">
	<desc>
			Created with Pixso.
	</desc>
	<defs/>
	<path id="Vector" d="M16 0C7.17 0 0 7.17 0 16C0 24.82 7.17 32 16 32C24.82 32 32 24.82 32 16C32 7.17 24.82 0 16 0ZM20.94 16.94L14.27 23.6C14.01 23.86 13.67 24 13.33 24C12.99 24 12.65 23.86 12.39 23.6C11.86 23.08 11.86 22.24 12.39 21.72L18.11 16L12.39 10.27C11.86 9.75 11.86 8.91 12.39 8.39C12.91 7.86 13.75 7.86 14.27 8.39L20.94 15.05C21.46 15.57 21.46 16.42 20.94 16.94Z" fill="#487CAB" fill-opacity="1.000000" fill-rule="nonzero"/>
</svg>
