<svg width="15.500000" height="15.501099" viewBox="0 0 15.5 15.5011" fill="none" xmlns="http://www.w3.org/2000/svg" xmlns:xlink="http://www.w3.org/1999/xlink">
	<desc>
			Created with Pixso.
	</desc>
	<defs/>
	<path id="Symbol" d="M7.75 15.5C12 15.5 15.5 12.03 15.5 7.75C15.46 3.46 12 0 7.75 0C5.65 0 3.78 0.84 2.37 2.15L0.84 0.62C0.53 0.31 0 0.53 0 0.96L0 5.5C0 5.78 0.21 6 0.5 6L5.03 6C5.46 6 5.68 5.46 5.37 5.15L3.78 3.56C4.81 2.59 6.21 2 7.75 2C10.9 2 13.5 4.59 13.5 7.75C13.5 10.93 10.9 13.5 7.75 13.5C6.37 13.5 5.15 13.06 4.15 12.28C3.87 12.03 3.43 12.06 3.15 12.34L2.81 12.68C2.5 13 2.53 13.53 2.87 13.81C4.18 14.87 5.9 15.53 7.75 15.5ZM8.78 10.34C9.09 10.59 9.56 10.53 9.84 10.21L10.12 9.81C10.4 9.5 10.34 9.03 10 8.78L8.75 7.78L8.75 4.5C8.75 4.09 8.4 3.75 8 3.75L7.5 3.75C7.06 3.75 6.75 4.09 6.75 4.5L6.75 8.75L8.78 10.34Z" fill="#487CAB" fill-opacity="1.000000" fill-rule="evenodd"/>
</svg>
